<svg xmlns="http://www.w3.org/2000/svg" version="1.1" xmlns:xlink="http://www.w3.org/1999/xlink" xmlns:svgjs="http://svgjs.com/svgjs" width="371" height="371"><svg width="371" height="371" viewBox="0 0 371 371" fill="none" xmlns="http://www.w3.org/2000/svg">
<circle cx="185.5" cy="185.5" r="185.5" fill="#003554"></circle>
<path d="M112.869 156.878H91.6455V195.654H112.869V156.878Z" fill="white"></path>
<path d="M199.142 118.145L183.996 103L38 248.996H68.8077L199.142 118.145Z" fill="white"></path>
<path d="M229.695 147.868L214.549 132.723L98.2734 248.999H125.334L229.695 147.868Z" fill="white"></path>
<path d="M303.33 249H332L215.725 132.724L200.578 147.869L303.33 249Z" fill="white"></path>
<path d="M224.396 199.348L214.894 189.847L205.393 199.348L214.894 208.849L224.396 199.348Z" fill="white"></path>
<path d="M224.731 223.869L215.229 214.368L205.728 223.869L215.229 233.372L224.731 223.869Z" fill="white"></path>
<path d="M236.821 211.786L227.32 202.285L217.817 211.786L227.32 221.288L236.821 211.786Z" fill="white"></path>
<path d="M212.288 211.431L202.787 201.93L193.284 211.431L202.787 220.932L212.288 211.431Z" fill="white"></path>
</svg><style>@media (prefers-color-scheme: light) { :root { filter: none; } }
</style></svg>