<svg width="43" height="54" viewBox="0 0 43 54" fill="none" xmlns="http://www.w3.org/2000/svg">
<path d="M21.7919 26.8559C28.6557 26.8559 34.2199 21.2917 34.2199 14.4279C34.2199 7.56418 28.6557 2 21.7919 2C14.9282 2 9.36401 7.56418 9.36401 14.4279C9.36401 21.2917 14.9282 26.8559 21.7919 26.8559Z" stroke="white" stroke-width="3" stroke-linecap="round" stroke-linejoin="round"/>
<path fill-rule="evenodd" clip-rule="evenodd" d="M2.07841 44.1412C2.07511 43.2676 2.27051 42.4046 2.64986 41.6175C3.84028 39.2367 7.19727 37.9749 9.98286 37.4035C11.9918 36.9747 14.0285 36.6883 16.0778 36.5463C19.8719 36.2131 23.688 36.2131 27.4821 36.5463C29.5312 36.69 31.5678 36.9764 33.5771 37.4035C36.3626 37.9749 39.7196 39.1177 40.9101 41.6175C41.6729 43.2219 41.6729 45.0844 40.9101 46.6888C39.7196 49.1886 36.3626 50.3314 33.5771 50.879C31.5704 51.3255 29.533 51.62 27.4821 51.76C24.394 52.0217 21.2915 52.0695 18.1968 51.9028C17.4825 51.9028 16.7921 51.9028 16.0778 51.76C14.0346 51.6217 12.0049 51.3272 10.0067 50.879C7.19727 50.3314 3.86409 49.1886 2.64986 46.6888C2.27245 45.8926 2.07725 45.0223 2.07841 44.1412Z" stroke="white" stroke-width="3" stroke-linecap="round" stroke-linejoin="round"/>
</svg>
