<svg width="69" height="74"  fill="none" xmlns="http://www.w3.org/2000/svg">
<path d="M31.6435 9.36047H10.392C8.43331 9.3662 6.55645 10.1449 5.17141 11.5264C3.78638 12.908 3.00574 14.7801 3 16.7339V63.2458C3.00574 65.1996 3.78638 67.0717 5.17141 68.4533C6.55645 69.8348 8.43331 70.6135 10.392 70.6192H57.0205C58.9792 70.6135 60.8561 69.8348 62.2411 68.4533C63.6262 67.0717 64.4068 65.1996 64.4126 63.2458V38.99" stroke="#003554" stroke-width="5" stroke-miterlimit="10" stroke-linecap="round"/>
<path d="M55.7232 20.0836C55.5959 20.032 55.4594 20.0069 55.3219 20.0098C55.1845 20.0127 55.0492 20.0436 54.9242 20.1005C54.7975 20.1569 54.6836 20.2385 54.5896 20.3403C54.4955 20.442 54.4232 20.5618 54.377 20.6923C54.1249 21.4471 53.6591 22.1129 53.0359 22.6094C52.3363 23.1598 51.4697 23.4562 50.5787 23.4498C49.4955 23.4844 48.4418 23.0946 47.643 22.364C46.9058 21.6333 46.3851 20.7137 46.1384 19.7066H50.1554C50.2815 19.708 50.4065 19.6844 50.5233 19.6372C50.6401 19.59 50.7463 19.5202 50.8359 19.4318C50.9255 19.3433 50.9966 19.2381 51.0451 19.1221C51.0936 19.0061 51.1186 18.8816 51.1186 18.7559C51.1186 18.6302 51.0936 18.5058 51.0451 18.3898C50.9966 18.2738 50.9255 18.1685 50.8359 18.0801C50.7463 17.9917 50.6401 17.9219 50.5233 17.8747C50.4065 17.8275 50.2815 17.8039 50.1554 17.8052H45.8322C45.8111 17.5092 45.8 17.1987 45.8 16.8814C45.8 16.6918 45.8074 16.4449 45.8226 16.1468H51.1068C51.2327 16.1482 51.3577 16.1246 51.4744 16.0774C51.5912 16.0302 51.6974 15.9605 51.7869 15.8721C51.8764 15.7837 51.9475 15.6785 51.996 15.5626C52.0445 15.4467 52.0695 15.3223 52.0695 15.1967C52.0695 15.071 52.0445 14.9467 51.996 14.8307C51.9475 14.7148 51.8764 14.6096 51.7869 14.5212C51.6974 14.4329 51.5912 14.3631 51.4744 14.3159C51.3577 14.2688 51.2327 14.2452 51.1068 14.2465H46.0992C46.3268 13.1916 46.851 12.2233 47.6106 11.4551C48.0075 11.075 48.4768 10.778 48.9906 10.5817C49.5045 10.3854 50.0525 10.2937 50.6025 10.312C51.44 10.2895 52.2634 10.53 52.9565 10.9994C53.4741 11.3719 53.8797 11.8785 54.1295 12.4643C54.1878 12.5951 54.2722 12.7127 54.3776 12.8098C54.483 12.9069 54.6072 12.9816 54.7425 13.0291C54.8749 13.0759 55.0155 13.0948 55.1556 13.0848C55.2956 13.0747 55.4321 13.0359 55.5564 12.9707C55.7907 12.8487 55.9694 12.642 56.0558 12.3928C56.1422 12.1437 56.1298 11.871 56.021 11.6307C55.6114 10.6961 54.9391 9.89988 54.0855 9.33828C53.0151 8.66921 51.7705 8.33029 50.5077 8.36404C49.6974 8.33742 48.8898 8.47116 48.1316 8.75754C47.3734 9.04391 46.6796 9.47725 46.0901 10.0325C44.9597 11.1851 44.2116 12.6562 43.9471 14.2469H42.7307C42.6048 14.2456 42.4798 14.2692 42.3631 14.3163C42.2463 14.3635 42.1401 14.4333 42.0506 14.5216C41.9611 14.61 41.89 14.7152 41.8415 14.8311C41.793 14.9471 41.768 15.0715 41.768 15.1971C41.768 15.3227 41.793 15.4471 41.8415 15.563C41.89 15.679 41.9611 15.7842 42.0506 15.8725C42.1401 15.9609 42.2463 16.0307 42.3631 16.0778C42.4798 16.125 42.6048 16.1486 42.7307 16.1473H43.7254C43.7108 16.4398 43.7043 16.6862 43.7043 16.8819C43.7043 17.2003 43.7149 17.5108 43.7342 17.8057H42.731C42.605 17.8043 42.48 17.8279 42.3632 17.8751C42.2464 17.9223 42.1401 17.9921 42.0505 18.0805C41.961 18.169 41.8899 18.2742 41.8413 18.3902C41.7928 18.5062 41.7678 18.6307 41.7678 18.7564C41.7678 18.8821 41.7928 19.0065 41.8413 19.1225C41.8899 19.2385 41.961 19.3438 42.0505 19.4322C42.1401 19.5206 42.2464 19.5904 42.3632 19.6376C42.48 19.6848 42.605 19.7084 42.731 19.7071H43.9771C44.262 21.2558 45.0186 22.6792 46.1438 23.7835C47.3467 24.8755 48.9296 25.4557 50.5551 25.4003C51.8817 25.4116 53.1753 24.9887 54.2379 24.1965C55.1887 23.4862 55.9069 22.5104 56.3014 21.3927C56.396 21.1425 56.3884 20.8652 56.2803 20.6204C56.1722 20.3757 55.9722 20.1829 55.7232 20.0836Z" fill="#003554"/>
<path d="M45.9718 50.1394H54.4448" stroke="#003554" stroke-width="5" stroke-miterlimit="10" stroke-linecap="round"/>
<path d="M49.3178 47.6851C49.421 47.8238 49.5553 47.9364 49.71 48.014C49.8646 48.0916 50.0353 48.132 50.2085 48.132C50.3816 48.132 50.5523 48.0916 50.707 48.014C50.8616 47.9364 50.9959 47.8238 51.0991 47.6851C51.1366 47.6348 54.8812 42.5934 58.5745 36.6156C63.6084 28.468 66.1608 22.5113 66.1608 18.9124C66.1608 14.6921 64.4801 10.6448 61.4885 7.66062C58.4968 4.67648 54.4392 3 50.2084 3C45.9776 3 41.92 4.67648 38.9283 7.66062C35.9367 10.6448 34.256 14.6921 34.256 18.9124C34.256 22.5117 36.8085 28.468 41.8423 36.6156C45.5356 42.5934 49.28 47.6348 49.3178 47.6851Z" stroke="#003554" stroke-width="5" stroke-miterlimit="10" stroke-linecap="round"/>
</svg>
