<svg width="27" height="23" viewBox="0 0 27 23" fill="none" xmlns="http://www.w3.org/2000/svg">
<path d="M13.5 22.8183L13.0807 22.4514C3.54122 14.694 0.9729 11.9685 0.9729 7.5132C0.9729 3.84416 3.96054 0.908936 7.57716 0.908936C10.6172 0.908936 12.3469 2.63862 13.5 3.94899C14.6532 2.63862 16.3828 0.908936 19.4229 0.908936C23.0919 0.908936 26.0272 3.89658 26.0272 7.5132C26.0272 11.9685 23.4588 14.694 13.9193 22.4514L13.5 22.8183ZM7.57716 2.27172C4.69435 2.27172 2.33568 4.63038 2.33568 7.5132C2.33568 11.3395 4.74676 13.8554 13.5 21.0362C22.2533 13.8554 24.6644 11.3395 24.6644 7.5132C24.6644 4.63038 22.3057 2.27172 19.4229 2.27172C16.8022 2.27172 15.387 3.84416 14.2863 5.10212L13.5 5.99317L12.7138 5.10212C11.6131 3.84416 10.1979 2.27172 7.57716 2.27172Z" fill="#FFC100"/>
</svg>
