<svg width="47" height="47" viewBox="0 0 47 47" fill="none" xmlns="http://www.w3.org/2000/svg">
<g filter="url(#filter0_d_0_1)">
<circle cx="23.5" cy="21.5" r="20.5" fill="white"/>
</g>
<mask id="path-2-inside-1_0_1" fill="white">
<path d="M23.5 34.3186L23.0807 33.9516C13.5412 26.1943 10.9729 23.4687 10.9729 19.0134C10.9729 15.3444 13.9605 12.4092 17.5771 12.4092C20.6172 12.4092 22.3469 14.1389 23.5 15.4492C24.6531 14.1389 26.3828 12.4092 29.4229 12.4092C33.0919 12.4092 36.0271 15.3968 36.0271 19.0134C36.0271 23.4687 33.4588 26.1943 23.9193 33.9516L23.5 34.3186ZM17.5771 13.772C14.6943 13.772 12.3356 16.1306 12.3356 19.0134C12.3356 22.8397 14.7467 25.3556 23.5 32.5365C32.2533 25.3556 34.6643 22.8397 34.6643 19.0134C34.6643 16.1306 32.3057 13.772 29.4229 13.772C26.8021 13.772 25.3869 15.3444 24.2862 16.6024L23.5 17.4934L22.7138 16.6024C21.6131 15.3444 20.1979 13.772 17.5771 13.772Z"/>
</mask>
<path d="M23.5 34.3186L23.0807 33.9516C13.5412 26.1943 10.9729 23.4687 10.9729 19.0134C10.9729 15.3444 13.9605 12.4092 17.5771 12.4092C20.6172 12.4092 22.3469 14.1389 23.5 15.4492C24.6531 14.1389 26.3828 12.4092 29.4229 12.4092C33.0919 12.4092 36.0271 15.3968 36.0271 19.0134C36.0271 23.4687 33.4588 26.1943 23.9193 33.9516L23.5 34.3186ZM17.5771 13.772C14.6943 13.772 12.3356 16.1306 12.3356 19.0134C12.3356 22.8397 14.7467 25.3556 23.5 32.5365C32.2533 25.3556 34.6643 22.8397 34.6643 19.0134C34.6643 16.1306 32.3057 13.772 29.4229 13.772C26.8021 13.772 25.3869 15.3444 24.2862 16.6024L23.5 17.4934L22.7138 16.6024C21.6131 15.3444 20.1979 13.772 17.5771 13.772Z" fill="#FF0000"/>
<path d="M23.0807 33.9516L27.6902 28.6836L27.5951 28.6004L27.4971 28.5207L23.0807 33.9516ZM23.5 15.4492L18.245 20.0736L23.5 26.0452L28.755 20.0736L23.5 15.4492ZM23.9193 33.9516L19.5029 28.5207L19.4049 28.6004L19.3098 28.6836L23.9193 33.9516ZM23.5 32.5365L19.0603 37.9484L23.5 41.5905L27.9397 37.9484L23.5 32.5365ZM24.2862 16.6024L29.5351 21.2337L29.5447 21.2228L29.5542 21.2119L24.2862 16.6024ZM23.5 17.4934L18.2511 22.1248L23.5 28.0735L28.7488 22.1248L23.5 17.4934ZM22.7138 16.6024L17.4457 21.2119L17.4553 21.2228L17.4649 21.2337L22.7138 16.6024ZM28.1095 29.0505L27.6902 28.6836L18.4711 39.2197L18.8904 39.5866L28.1095 29.0505ZM27.4971 28.5207C22.6222 24.5565 20.1542 22.3603 18.8335 20.7708C17.8862 19.6306 17.9729 19.377 17.9729 19.0134H3.97285C3.97285 23.1051 5.34368 26.4419 8.06536 29.7177C10.4138 32.5442 13.9996 35.5894 18.6643 39.3826L27.4971 28.5207ZM17.9729 19.0134C17.9729 19.0548 17.9629 19.1144 17.9374 19.1742C17.9141 19.2289 17.8843 19.2695 17.8549 19.2987C17.7976 19.3557 17.6953 19.4092 17.5771 19.4092V5.40918C10.1307 5.40918 3.97285 11.4423 3.97285 19.0134H17.9729ZM17.5771 19.4092C17.6602 19.4092 17.6593 19.4191 17.6082 19.4037C17.5608 19.3895 17.5345 19.3728 17.5435 19.3784C17.5594 19.3883 17.6236 19.431 17.7438 19.5429C17.8698 19.6603 18.0196 19.8175 18.245 20.0736L28.755 10.8248C27.3006 9.17218 23.7855 5.40918 17.5771 5.40918V19.4092ZM28.755 20.0736C28.9804 19.8175 29.1302 19.6603 29.2562 19.5429C29.3763 19.431 29.4406 19.3883 29.4565 19.3784C29.4655 19.3728 29.4392 19.3895 29.3918 19.4037C29.3406 19.4191 29.3397 19.4092 29.4229 19.4092V5.40918C23.2144 5.40918 19.6993 9.17218 18.245 10.8248L28.755 20.0736ZM29.4229 19.4092C29.3814 19.4092 29.3219 19.3992 29.2621 19.3737C29.2074 19.3505 29.1668 19.3207 29.1376 19.2912C29.0806 19.2339 29.0271 19.1316 29.0271 19.0134H43.0271C43.0271 11.567 36.994 5.40918 29.4229 5.40918V19.4092ZM29.0271 19.0134C29.0271 19.377 29.1138 19.6306 28.1664 20.7708C26.8458 22.3603 24.3778 24.5565 19.5029 28.5207L28.3357 39.3826C33.0003 35.5894 36.5862 32.5442 38.9346 29.7177C41.6563 26.4419 43.0271 23.1051 43.0271 19.0134H29.0271ZM19.3098 28.6836L18.8904 29.0505L28.1095 39.5866L28.5289 39.2197L19.3098 28.6836ZM17.5771 6.77196C10.8283 6.77196 5.33564 12.2646 5.33564 19.0134H19.3356C19.3356 19.9966 18.5603 20.772 17.5771 20.772V6.77196ZM5.33564 19.0134C5.33564 22.9353 6.77791 26.0687 9.29229 29.0394C11.4741 31.617 14.7858 34.4418 19.0603 37.9484L27.9397 27.1245C23.4609 23.4503 21.1905 21.4267 19.9784 19.9946C19.4429 19.362 19.3311 19.0882 19.3272 19.0785C19.327 19.0779 19.3349 19.0999 19.3397 19.1258C19.3437 19.1474 19.3356 19.1198 19.3356 19.0134H5.33564ZM27.9397 37.9484C32.2141 34.4418 35.5259 31.617 37.7077 29.0394C40.2221 26.0687 41.6643 22.9353 41.6643 19.0134H27.6643C27.6643 19.1198 27.6563 19.1474 27.6603 19.1258C27.6651 19.0999 27.673 19.0779 27.6728 19.0785C27.6688 19.0882 27.5571 19.362 27.0216 19.9946C25.8095 21.4267 23.5391 23.4503 19.0603 27.1245L27.9397 37.9484ZM41.6643 19.0134C41.6643 12.2646 36.1717 6.77196 29.4229 6.77196V20.772C28.4397 20.772 27.6643 19.9966 27.6643 19.0134H41.6643ZM29.4229 6.77196C23.4024 6.77196 20.1311 10.7209 19.0182 11.9928L29.5542 21.2119C29.6892 21.0577 29.7898 20.9436 29.8852 20.8391C29.9776 20.7379 30.0476 20.6651 30.1032 20.6101C30.2164 20.4984 30.2398 20.4912 30.1888 20.5254C30.1271 20.5669 29.9981 20.6414 29.8166 20.6999C29.6297 20.7601 29.4844 20.772 29.4229 20.772V6.77196ZM19.0373 11.971L18.2511 12.8621L28.7488 22.1248L29.5351 21.2337L19.0373 11.971ZM28.7488 12.8621L27.9626 11.971L17.4649 21.2337L18.2511 22.1248L28.7488 12.8621ZM27.9818 11.9928C26.8689 10.7209 23.5976 6.77196 17.5771 6.77196V20.772C17.5155 20.772 17.3702 20.7601 17.1834 20.6999C17.0018 20.6414 16.8729 20.5669 16.8111 20.5254C16.7602 20.4912 16.7836 20.4984 16.8967 20.6101C16.9524 20.6651 17.0224 20.7379 17.1148 20.8391C17.2102 20.9436 17.3108 21.0577 17.4457 21.2119L27.9818 11.9928Z" fill="#FF0000" mask="url(#path-2-inside-1_0_1)"/>
<defs>
<filter id="filter0_d_0_1" x="0" y="0" width="47" height="47" filterUnits="userSpaceOnUse" color-interpolation-filters="sRGB">
<feFlood flood-opacity="0" result="BackgroundImageFix"/>
<feColorMatrix in="SourceAlpha" type="matrix" values="0 0 0 0 0 0 0 0 0 0 0 0 0 0 0 0 0 0 127 0" result="hardAlpha"/>
<feOffset dy="2"/>
<feGaussianBlur stdDeviation="1.5"/>
<feComposite in2="hardAlpha" operator="out"/>
<feColorMatrix type="matrix" values="0 0 0 0 0 0 0 0 0 0 0 0 0 0 0 0 0 0 0.25 0"/>
<feBlend mode="normal" in2="BackgroundImageFix" result="effect1_dropShadow_0_1"/>
<feBlend mode="normal" in="SourceGraphic" in2="effect1_dropShadow_0_1" result="shape"/>
</filter>
</defs>
</svg>
