<svg width="25" height="32" viewBox="0 0 25 32" fill="none" xmlns="http://www.w3.org/2000/svg">
<path d="M2.11434 0.744385H22.9798C23.2873 0.744385 23.5821 0.866514 23.7995 1.0839C24.0169 1.3013 24.139 1.59614 24.139 1.90358V6.54036C24.1365 6.67937 24.1091 6.8168 24.0579 6.94607C24.06 6.98469 24.06 7.02338 24.0579 7.06199C24.062 7.10052 24.062 7.13938 24.0579 7.17791L17.1839 17.3209V27.4059C17.1829 27.5968 17.1348 27.7845 17.0437 27.9524C16.9527 28.1202 16.8217 28.263 16.6622 28.368L9.70707 33.0048C9.53272 33.1196 9.33061 33.1852 9.12207 33.1947C8.91354 33.2041 8.70631 33.1571 8.52228 33.0586C8.33825 32.96 8.18425 32.8136 8.07653 32.6348C7.96882 32.456 7.91139 32.2514 7.91032 32.0426V17.3209L1.15221 7.17791C1.02545 6.98931 0.956923 6.7676 0.955149 6.54036V1.90358C0.955149 1.59614 1.07728 1.3013 1.29467 1.0839C1.51206 0.866514 1.80691 0.744385 2.11434 0.744385ZM3.27354 6.1926L10.0316 16.3356C10.1584 16.5242 10.2269 16.7459 10.2287 16.9731V29.8749L14.8655 26.7799V16.9731C14.8673 16.7459 14.9358 16.5242 15.0625 16.3356L20.8122 7.69955H10.2287C9.92127 7.69955 9.62642 7.57742 9.40903 7.36003C9.19164 7.14264 9.06951 6.84779 9.06951 6.54036C9.06951 6.23292 9.19164 5.93807 9.40903 5.72068C9.62642 5.50329 9.92127 5.38116 10.2287 5.38116H21.8206V3.06277H3.27354V6.1926Z" fill="#003554"/>
</svg>
