<svg width="37" height="36" viewBox="0 0 37 36" fill="none" xmlns="http://www.w3.org/2000/svg">
<path d="M6.5 4.99984C7.07464 4.99984 7.62574 4.77156 8.03206 4.36523C8.43839 3.95891 8.66667 3.40781 8.66667 2.83317C8.66667 2.25853 8.43839 1.70744 8.03206 1.30111C7.62574 0.894777 7.07464 0.666504 6.5 0.666504H2.16667C1.59203 0.666504 1.04093 0.894777 0.634602 1.30111C0.228274 1.70744 0 2.25853 0 2.83317V33.1665C0 33.7411 0.228274 34.2922 0.634602 34.6986C1.04093 35.1049 1.59203 35.3332 2.16667 35.3332H6.5C7.07464 35.3332 7.62574 35.1049 8.03206 34.6986C8.43839 34.2922 8.66667 33.7411 8.66667 33.1665C8.66667 32.5919 8.43839 32.0408 8.03206 31.6344C7.62574 31.2281 7.07464 30.9998 6.5 30.9998H4.33333V4.99984H6.5ZM36.4433 16.7432L30.3333 8.0765C30.002 7.6094 29.4992 7.29248 28.9348 7.19504C28.3705 7.09759 27.7905 7.22755 27.3217 7.5565C27.0873 7.72071 26.8879 7.9297 26.7347 8.17141C26.5816 8.41313 26.4779 8.68278 26.4295 8.9648C26.3812 9.24682 26.3892 9.53563 26.453 9.81454C26.5169 10.0935 26.6354 10.357 26.8017 10.5898L30.5283 15.8332H13C12.4254 15.8332 11.8743 16.0614 11.4679 16.4678C11.0616 16.8741 10.8333 17.4252 10.8333 17.9998C10.8333 18.5745 11.0616 19.1256 11.4679 19.5319C11.8743 19.9382 12.4254 20.1665 13 20.1665H30.3333L26.4333 25.3665C26.2626 25.5941 26.1384 25.8531 26.0678 26.1288C25.9972 26.4044 25.9815 26.6912 26.0218 26.9729C26.062 27.2546 26.1573 27.5256 26.3023 27.7704C26.4473 28.0152 26.639 28.2291 26.8667 28.3998C27.2417 28.6811 27.6979 28.8332 28.1667 28.8332C28.503 28.8332 28.8348 28.7549 29.1356 28.6044C29.4365 28.454 29.6982 28.2356 29.9 27.9665L36.4 19.2998C36.6775 18.9334 36.8312 18.4882 36.839 18.0286C36.8468 17.569 36.7082 17.1188 36.4433 16.7432Z" fill="white"/>
</svg>
