<svg width="37" height="37" viewBox="0 0 37 37" fill="none" xmlns="http://www.w3.org/2000/svg">
<g clip-path="url(#clip0_92_562)">
<path d="M17.5143 6.98375L16.9788 7.9232C16.1892 7.4745 15.319 7.18574 14.4179 7.07339C13.5167 6.96105 12.6022 7.02733 11.7267 7.26844C10.8512 7.50956 10.0317 7.92079 9.31509 8.47864C8.5985 9.0365 7.99881 9.73006 7.55029 10.5197L6.61084 9.98494C7.65921 8.14157 9.39666 6.78993 11.4413 6.22715C13.4859 5.66437 15.6703 5.93651 17.5143 6.98375Z" fill="#666666"/>
<path d="M23.2956 4.22032C18.3743 -1.05507 10.0775 -1.34413 4.80135 3.57644C2.30269 5.91286 0.818285 9.13483 0.666053 12.5523C0.51382 15.9697 1.70586 19.3109 3.98688 21.8603C6.2679 24.4096 9.45651 25.9644 12.8698 26.1916C16.2831 26.4188 19.6496 25.3004 22.2484 23.0759C22.3853 22.9588 22.5199 22.8384 22.6524 22.7145C22.7854 22.591 22.9147 22.4645 23.0412 22.3366C25.4127 19.933 26.7633 16.7058 26.8107 13.3296C26.8581 9.95339 25.5986 6.68953 23.2956 4.22032ZM24.36 13.5209C24.2644 16.2752 23.1035 18.8849 21.122 20.8004C19.1405 22.7159 16.493 23.7876 13.737 23.7899C13.6112 23.7899 13.4848 23.7877 13.3576 23.7833C11.9607 23.7385 10.5867 23.417 9.31485 22.8376C8.04304 22.2582 6.89875 21.4324 5.9482 20.4078C1.94685 16.1152 2.18172 9.37286 6.47141 5.37151C8.01 3.93615 9.9397 2.9893 12.0165 2.65072C14.0932 2.31213 16.2237 2.59701 18.1386 3.46934C20.0534 4.34167 21.6665 5.76225 22.774 7.55143C23.8814 9.34061 24.4333 11.418 24.36 13.5209Z" fill="#666666"/>
<path d="M17.5143 6.98375L16.9788 7.9232C16.1892 7.4745 15.319 7.18574 14.4179 7.07339C13.5167 6.96105 12.6022 7.02733 11.7267 7.26844C10.8512 7.50956 10.0317 7.92079 9.31509 8.47864C8.5985 9.0365 7.99881 9.73006 7.55029 10.5197L6.61084 9.98494C7.65921 8.14157 9.39666 6.78993 11.4413 6.22715C13.4859 5.66437 15.6703 5.93651 17.5143 6.98375Z" fill="white"/>
<path d="M35.7621 32.8954L26.864 23.6974L23.323 27.0021L32.2225 36.2051C32.4389 36.4373 32.6991 36.6244 32.988 36.7556C33.277 36.8868 33.5891 36.9596 33.9063 36.9697H33.9923C34.464 36.9691 34.9253 36.8309 35.3196 36.5719C35.7139 36.313 36.0241 35.9445 36.212 35.5119C36.3999 35.0792 36.4574 34.601 36.3775 34.1361C36.2976 33.6712 36.0837 33.2397 35.7621 32.8946V32.8954Z" fill="#666666"/>
<path d="M22.6788 21.9471L21.8861 22.6865L25.075 26.1049L25.8676 25.3655L22.6788 21.9471Z" fill="#666666"/>
<path d="M17.5143 6.98375L16.9788 7.9232C16.1892 7.4745 15.319 7.18574 14.4179 7.07339C13.5167 6.96105 12.6022 7.02733 11.7267 7.26844C10.8512 7.50956 10.0317 7.92079 9.31509 8.47864C8.5985 9.0365 7.99881 9.73006 7.55029 10.5197L6.61084 9.98494C7.65921 8.14157 9.39666 6.78993 11.4413 6.22715C13.4859 5.66437 15.6703 5.93651 17.5143 6.98375Z" fill="#666666"/>
</g>
<defs>
<clipPath id="clip0_92_562">
<rect width="37" height="37" fill="white"/>
</clipPath>
</defs>
</svg>
